<svg width="1920" height="632" viewBox="0 0 1920 632" fill="none" xmlns="http://www.w3.org/2000/svg">
<path d="M1920 623.669C1589.65 471.832 322.883 493.083 0 631.405V258.643C15.8081 248.658 37.0894 234.984 39.0112 232.105C40.14 230.291 40.5506 226.724 41.6269 225.434C44.3587 222.161 47.9756 223.592 50.7 218.758C52.6575 215.29 51.4594 211.022 54.2456 207.531C58.3725 202.356 64.9219 204.534 68.4506 205.146C76.7625 206.579 84.8587 207.073 93.4237 207.979C99.3731 208.614 100.02 207.436 104.621 199.884C116.724 198.265 128.738 200.167 139.74 202.945C144.128 204.051 146.117 203.674 150.825 202.669C154.884 201.809 159.367 204.24 162.93 203.251C167.932 201.869 177.602 190.4 182.601 186.555C187.547 182.735 196.989 180.581 198.876 172.667C203.136 171.95 205.791 175.415 209.662 175.376C213.347 175.346 217.08 173.698 220.714 173.762C229.882 173.939 231.703 169.694 240.311 164.202C245.698 160.769 249.814 155.647 254.428 152.039C258.954 148.5 264.851 149.36 269.927 145.609C274.695 142.084 280.65 137.084 285.133 132.611C288.163 135.136 287.976 136.654 291.577 135.106C294.096 134.03 298.161 129.185 300.652 127.306C304.485 124.415 310.905 121.936 312.332 116.592C314.766 115.513 317.021 112.924 317.844 109.98C321.362 109.384 325.02 111.493 328.369 112.629C334.956 114.867 341.942 115.674 349.402 115.256C353.214 115.049 359.042 116.58 362.52 115.626C366.598 114.513 372.161 108.81 376.022 106.094C382.507 101.545 385.509 101.844 392.441 101.244C398.182 100.749 403.896 100.126 409.592 100.048C413.252 99.9902 420.808 102.598 424.001 101.315C427.815 99.7717 432.444 91.4883 435.056 87.5144C442.32 76.4575 447.649 73.6749 459.396 67.9279C469.153 63.1768 475.62 56.5008 483.619 48.2127C491.064 40.4995 498.812 42.813 507.086 37.0615C511.074 34.2881 515.102 30.3372 519.028 27.1935C523.013 23.997 530.265 14.8189 534.461 13.5541C540.037 11.8592 550.766 18.1995 554.957 21.2488C563.136 27.1774 571.781 31.9447 582.849 32.039C587.492 32.0758 592.406 30.3096 597.139 30.3625C604.618 30.4499 611.846 33.4395 618.883 34.6238C624.96 35.6472 630.412 38.6506 636.019 41.1711C642.966 44.2848 650.424 45.8969 657.379 48.8244C666.049 52.4809 670.809 64.0668 680.554 63.8138C692.606 63.4941 707.784 55.029 719.117 50.2893C724.883 47.8701 730.369 43.6892 736.228 41.4884C747.994 37.0799 760.896 40.0166 772.819 37.1788C782.649 34.8469 790.224 26.276 800.717 25.8873C803.668 25.7746 807.606 26.453 810.609 27.0349C815.612 28.0007 815.732 27.8076 818.286 33.6235C821.929 41.9185 827.505 49.5649 831.802 57.6322C835.631 64.8372 837.846 73.1252 842.917 79.8012C845.775 83.5635 850.046 85.6884 852.898 88.9333C856.224 92.6059 897.366 115.75 903.274 116.838C905.394 114.202 908.102 101.908 910.037 101.437C911.856 100.991 913.997 99.7832 915.941 99.2014C918.225 98.5115 920.569 98.8358 923.154 98.5828C925.172 98.3827 927.332 97.5939 928.929 96.5683C930.791 95.3747 931.637 93.6201 933.277 92.2587C934.738 91.0421 936.532 90.1705 937.819 88.8045C938.874 87.6915 939.311 86.9027 940.751 86.2082C943.382 84.9525 945.714 83.5474 948.591 82.6919C951.975 81.687 955.157 80.367 958.603 79.5253C961.258 78.8791 963.144 78.3892 964.314 76.3885C965.064 75.0984 965.428 73.5668 966.397 72.3548C967.215 71.3361 968.394 70.5772 969.231 69.5538C969.96 68.6707 970.455 67.6336 971.486 66.9437C972.806 66.0744 974.452 65.6076 975.802 64.8901C977.646 63.9196 978.667 62.6295 980.689 61.7694C982.704 60.9162 984.12 60.2332 986.308 59.7732C988.181 59.38 990 58.6257 991.867 58.1612C994.686 57.4598 997.498 57.055 1000.35 56.5008C1005.02 55.5878 1009.81 54.799 1014.26 53.4514C1015.94 52.9455 1017.7 53.0628 1019.31 52.5384C1021.58 51.8094 1022.96 50.7539 1025.51 50.4595C1026.54 50.3422 1027.67 50.5906 1028.66 50.4549C1029.68 50.3077 1030.39 49.9076 1031.48 49.7903C1033.57 49.5603 1035.94 50.0433 1038.07 50.0962C1040.77 50.172 1042.7 49.5649 1045.2 49.1188C1050.57 48.1414 1055.48 47.0997 1060.43 45.1334C1063.46 43.9192 1066.53 42.1829 1068.94 40.265C1071.02 38.6207 1072.97 37.9101 1075.69 37.1489C1077.73 36.5855 1079.45 35.7714 1081.65 35.5C1084.45 35.1666 1087.43 35.1781 1090.15 34.5411C1092.6 33.9638 1094.99 32.8991 1097.35 32.1402C1101.02 30.9673 1103.92 28.9252 1107.35 27.5247C1109.54 26.6301 1111.62 25.9103 1113.7 24.8571C1115.97 23.7095 1118.48 22.1733 1120.89 21.3132C1123.16 20.5061 1125.94 20.1358 1128.3 19.4942C1130.03 19.0296 1131.54 18.3213 1133.3 17.9856C1137.58 17.1807 1142.12 17.528 1146.43 16.9162C1152.01 16.1274 1156.69 13.3425 1160.41 10.1046C1164.7 6.38366 1169.37 2.52018 1175.21 0.783913C1177.91 -0.0163791 1178.64 1.07367 1180.99 2.69725C1184.31 4.99924 1187.66 7.28284 1190.8 9.7688C1194.59 12.7653 1197.9 15.7618 1201.95 18.4041C1203.58 19.4758 1205.5 20.2416 1207.13 21.2948C1208.2 21.9962 1208.19 22.4148 1208.98 22.9736C1209.57 23.4037 1210.21 23.5439 1210.77 23.928C1212.11 24.8387 1213.35 26.2001 1214.61 27.2579C1217.21 29.4495 1219.84 31.5975 1222.51 33.7224C1224.61 35.3942 1226.25 37.0799 1227.39 39.2347C1229.33 39.1979 1230.95 38.3631 1232.85 38.1677C1234.66 37.9791 1236.46 38.3447 1238.33 38.6046C1241 38.9749 1243.69 39.2278 1246.34 39.6878C1250.84 40.4467 1254.69 44.7977 1259 46.7685C1261.37 47.8586 1263.06 47.4101 1265.39 47.3825C1268.06 47.3526 1271.9 47.9344 1274.63 48.6887C1276.65 49.2476 1278.58 50.8734 1280.45 52.021C1284.32 54.3805 1288.61 57.0481 1291.99 59.9089C1295.77 63.1055 1300.53 66.2906 1303.28 70.1058C1304.61 71.9547 1307.13 73.914 1309.15 75.3398C1310.37 76.193 1311.74 76.5633 1312.99 77.3406C1314.31 78.1593 1315.37 79.1366 1316.74 79.9323C1318.42 80.8982 1320.68 82.2343 1321.66 83.759C1322.07 84.3937 1322.31 85.6494 1322.62 86.3439C1323.64 88.5975 1324.25 90.6397 1325.61 92.8543C1326.27 93.9259 1326.85 94.9976 1327.48 96.0692C1327.67 96.3981 1328.44 97.794 1328.6 97.9343C1329.26 98.5345 1329.97 98.8657 1331.05 98.6702C1331.52 98.5828 1331.98 98.1413 1332.39 97.9711C1333.31 97.587 1334.37 97.564 1335.31 97.2628C1337.27 96.6465 1337.85 95.5334 1340.32 96.2095C1342.42 96.7936 1343.42 98.454 1344.93 99.9074C1346.07 101.002 1347.09 102.315 1348.29 103.345C1349.21 104.127 1349.23 104.127 1350.38 104.452C1350.94 104.617 1351.57 104.516 1352.13 104.73C1352.56 104.9 1352.82 105.383 1353.11 105.5C1355.27 106.353 1357.66 107.696 1359.83 108.384C1361.21 108.821 1362.12 108.81 1363.45 109.391C1364.56 109.881 1365.33 110.463 1366.32 111.017C1370.54 113.372 1373.86 116.743 1378.54 118.723C1381.05 119.788 1382.45 119.765 1384.93 119.671C1387.51 119.581 1390.22 120.018 1392.8 119.912C1394.99 119.823 1398.93 120.301 1400.68 119.471C1404.56 117.627 1407.19 114.071 1410.82 112.07C1412.49 111.151 1414.06 110.003 1416.28 109.81C1418.24 109.633 1420.46 110.074 1422.55 110.003C1425.22 109.916 1427.25 109.056 1429.27 107.837C1432.1 106.135 1435.22 104.61 1438.51 103.405C1441.81 102.186 1445.44 101.809 1449.29 101.579C1453.51 101.331 1458.1 102.108 1462.27 101.855C1464.8 101.703 1467.58 100.673 1469.81 99.9534C1470.64 99.6844 1471.78 99.7648 1472.51 99.3716C1473.42 98.8887 1474.34 98.0056 1475.2 97.41C1476.3 96.6511 1477.06 95.6162 1478.19 94.8849C1479.58 93.9903 1480.83 93.4361 1481.73 92.1368C1482.65 90.8007 1483.71 89.7635 1484.79 88.5562C1485.3 87.9858 1486.65 85.8126 1487.33 85.7068C1488.43 85.5298 1492.41 88.6573 1493.38 89.5404C1493.98 90.0808 1494.37 90.8398 1494.98 91.3756C1495.59 91.9068 1496.33 92.284 1496.8 92.7784C1497.09 93.0727 1497.59 94.3031 1497.88 94.7147C1498.74 95.9681 1499.86 97.2628 1501 98.3758C1506.49 103.805 1513.21 106.719 1520.18 109.509C1521.97 110.222 1524.18 110.617 1525.85 111.539C1526.97 112.165 1528.17 113.105 1529.38 113.772C1532.29 115.366 1535.93 116.785 1538.5 118.981C1539.16 119.547 1539.52 120.106 1540.05 120.701C1541.37 122.166 1542.74 123.132 1544.28 124.464C1548.02 127.695 1551.84 130.804 1555.7 133.947C1558.51 136.238 1560.64 138.469 1562.51 141.352C1564.15 143.861 1565.18 146.375 1566.66 148.817C1567.78 150.655 1568.78 152.356 1570.41 154.021C1572.73 156.395 1575.15 156.606 1578.1 156.949C1581.34 157.319 1584.33 156.406 1587.39 156.225C1588.19 156.176 1588.69 156.107 1589.42 155.995C1590.32 155.847 1590.67 155.452 1591.93 156.029C1593.58 156.79 1594.42 158.384 1595.58 159.651C1597.62 161.87 1600.14 163.919 1602.21 166.309C1604.32 168.735 1606.96 171.32 1609.7 173.109C1611.72 174.422 1613.56 175.54 1615.4 177.011C1621.13 181.622 1627.2 186.396 1633.13 190.363C1639.04 194.314 1645.29 196.734 1651.66 198.73C1654.21 199.53 1656.47 199.647 1659.04 200.549C1664.51 202.474 1670.15 204.021 1675.57 206.395C1677.14 207.084 1679.63 208.043 1681.13 209.179C1682.05 209.862 1683.05 211.033 1684.09 211.81C1686.63 213.701 1689.23 215.327 1691.85 217.063C1695.49 219.475 1698.7 222.366 1702.19 224.992C1705.78 227.694 1709.72 229.431 1713.57 231.279C1719.12 233.954 1725.05 235.796 1730.62 237.921C1734.55 239.416 1738.86 240.642 1742.67 243.102C1743.69 243.76 1745.1 245.103 1746.12 245.321C1746.72 245.45 1748.44 245.08 1748.94 245.091C1751.68 245.14 1755.01 244.28 1757.69 245.027C1758.9 245.363 1760.64 246.692 1761.82 247.364C1764.54 248.907 1767.22 250.224 1769.96 251.56C1774.77 253.892 1779.57 256.266 1784.36 258.662C1787.94 260.44 1791.14 262.817 1794.62 264.938C1796.58 266.127 1797.31 266.715 1798.83 268.222C1803.89 273.256 1809.8 276.599 1815.47 280.456C1816.84 281.381 1817.81 282.834 1819.22 283.317C1821.14 283.97 1823.68 283.324 1825.58 283.593C1829.26 284.117 1833.14 285.554 1836.85 286.237C1839.2 286.668 1841.46 286.925 1843.81 287.279C1848.37 287.969 1853.39 290.623 1858.06 292.012C1860.88 292.849 1862.25 291.672 1864.83 292.355C1868.18 293.231 1870.93 293.732 1874.41 295.475C1877.68 297.117 1880.85 299.219 1884.04 301.273C1893.88 307.597 1904.45 313.56 1913.02 322.421C1915.04 324.509 1917.46 326.236 1920 327.754V623.669Z" fill="#161C44"/>
</svg>
