<svg width="1446" height="894" viewBox="0 0 1446 894" fill="none" xmlns="http://www.w3.org/2000/svg">
<path fill-rule="evenodd" clip-rule="evenodd" d="M1 1V893H1445.5V3L1 1ZM27.5 186L88.5 133L116 87L352 72L388 52.5L692.5 40.5L760 47V60L888.5 79.5V94.5L1106.5 138L1087.5 166L1132 183.5V202.5L1363.5 256L1386 328.5L1363.5 381.5L1427 568L1379.5 571.5L1298.5 604.5L1282 655.5H1253L1192.5 715V780L1176.5 814.5L1094.5 802.5H997L985.5 796L965 818.5L888 826L830 814.5L787 796C777.5 792.333 752.7 787.2 729.5 796C700.5 807 668.5 796 668.5 796L612.5 814.5L570 818.5C563.167 813.333 540.1 805.3 502.5 814.5C472.002 821.962 463.566 824.885 462.89 825.723L463.5 826C462.996 826 462.733 825.918 462.89 825.723L447 818.5C450 813.333 454.2 797.7 447 776.5L428 664L387 612.5L232 644.5L215 606L82 562L44 566L36.5 515.5L66 479L44 413L6 327L66 204.5L60 191.5L27.5 186Z" fill="black"/>
<path d="M462.89 825.723C463.566 824.885 472.002 821.962 502.5 814.5C540.1 805.3 563.167 813.333 570 818.5L612.5 814.5L668.5 796C668.5 796 700.5 807 729.5 796C752.7 787.2 777.5 792.333 787 796L830 814.5L888 826L965 818.5L985.5 796L997 802.5H1094.5L1176.5 814.5L1192.5 780V715L1253 655.5H1282L1298.5 604.5L1379.5 571.5L1427 568L1363.5 381.5L1386 328.5L1363.5 256L1132 202.5V183.5L1087.5 166L1106.5 138L888.5 94.5V79.5L760 60V47L692.5 40.5L388 52.5L352 72L116 87L88.5 133L27.5 186L60 191.5L66 204.5L6 327L44 413L66 479L36.5 515.5L44 566L82 562L215 606L232 644.5L387 612.5L428 664L447 776.5C454.2 797.7 450 813.333 447 818.5L462.89 825.723ZM462.89 825.723L463.5 826C462.996 826 462.733 825.918 462.89 825.723ZM1 1V893H1445.5V3L1 1Z" stroke="black"/>
</svg>
